<svg width="186" height="21" viewBox="0 0 186 21" fill="none" xmlns="http://www.w3.org/2000/svg">
<path d="M5.34668 11.0449V18.6914L8.61328 19.0869V19.8633H0.19043V19.0869L2.51953 18.6914V1.37695L0 0.996094V0.219727H14.7363V4.92188H13.7695L13.3008 1.74316C12.9883 1.7041 12.6074 1.66992 12.1582 1.64062C11.7188 1.61133 11.2695 1.5918 10.8105 1.58203C10.3516 1.5625 9.91699 1.55273 9.50684 1.55273C9.09668 1.54297 8.7793 1.53809 8.55469 1.53809H5.34668V9.72656H11.1328L11.5869 7.38281H12.4805V13.418H11.5869L11.1328 11.0449H5.34668ZM45.8125 1.37695L43.1758 0.996094V0.219727H49.8701V0.996094L47.3506 1.37695V13.1104C47.3506 14.0088 47.2383 14.8828 47.0137 15.7324C46.7891 16.5723 46.3936 17.3193 45.8271 17.9736C45.2607 18.6279 44.4844 19.1553 43.498 19.5557C42.5215 19.9561 41.2812 20.1562 39.7773 20.1562C37.1699 20.1562 35.2168 19.5703 33.918 18.3984C32.6289 17.2168 31.9844 15.5469 31.9844 13.3887V1.37695L29.4648 0.996094V0.219727H37.3164V0.996094L34.7969 1.37695V13.1689C34.7969 13.9697 34.8896 14.7021 35.0752 15.3662C35.2705 16.0205 35.5732 16.582 35.9834 17.0508C36.4033 17.5195 36.9404 17.8809 37.5947 18.1348C38.2588 18.3887 39.0596 18.5156 39.9971 18.5156C41.0225 18.5156 41.9014 18.3887 42.6338 18.1348C43.3662 17.8809 43.9668 17.5244 44.4355 17.0654C44.9141 16.6064 45.2607 16.0498 45.4756 15.3955C45.7002 14.7412 45.8125 14.0186 45.8125 13.2275V1.37695ZM90.0576 1.37695L83.6416 20.3174H82.8652L77.7676 6.78223L72.5381 20.3174H71.7617L65.2578 1.37695L63.5439 0.996094V0.219727H71.0439V0.996094L68.1582 1.37695L72.8311 15.2197L78.1191 1.59668H78.7783L83.876 15.2197L88.3291 1.37695L85.2676 0.996094V0.219727H91.7715V0.996094L90.0576 1.37695ZM108.287 19.0869V19.8633H101.827V19.0869L104.054 18.6914L110.748 0.0585938H113.531L120.489 18.6914L122.979 19.0869V19.8633H114.674V19.0869L117.311 18.6914L115.362 13.0225H107.628L105.65 18.6914L108.287 19.0869ZM111.437 2.16797L108.067 11.7041H114.908L111.437 2.16797ZM153.133 1.37695L150.496 0.996094V0.219727H157.19V0.996094L154.671 1.37695V19.8633H153.25L141.136 2.19727V18.6914L143.772 19.0869V19.8633H137.078V19.0869L139.598 18.6914V1.37695L137.078 0.996094V0.219727H143.025L153.133 14.7656V1.37695ZM172.93 14.5752H173.882L174.395 17.2266C174.58 17.4609 174.839 17.6855 175.171 17.9004C175.503 18.1055 175.869 18.291 176.27 18.457C176.68 18.6133 177.109 18.7402 177.559 18.8379C178.008 18.9258 178.447 18.9697 178.877 18.9697C179.619 18.9697 180.264 18.8721 180.811 18.6768C181.357 18.4717 181.807 18.1934 182.158 17.8418C182.52 17.4902 182.788 17.0752 182.964 16.5967C183.14 16.1182 183.228 15.5957 183.228 15.0293C183.228 14.3262 183.076 13.7451 182.773 13.2861C182.48 12.8271 182.09 12.4414 181.602 12.1289C181.123 11.8066 180.576 11.5381 179.961 11.3232C179.346 11.0986 178.711 10.874 178.057 10.6494C177.412 10.4248 176.782 10.1758 176.167 9.90234C175.552 9.62891 175 9.28223 174.512 8.8623C174.033 8.44238 173.643 7.9248 173.34 7.30957C173.047 6.68457 172.9 5.91797 172.9 5.00977C172.9 4.24805 173.047 3.55957 173.34 2.94434C173.633 2.31934 174.062 1.79199 174.629 1.3623C175.195 0.922852 175.889 0.585938 176.709 0.351562C177.539 0.117188 178.481 0 179.536 0C180.503 0 181.421 0.0634766 182.29 0.19043C183.159 0.317383 183.96 0.463867 184.692 0.629883V4.7168H183.74L183.228 2.31445C182.798 2.00195 182.271 1.74316 181.646 1.53809C181.021 1.33301 180.317 1.23047 179.536 1.23047C178.813 1.23047 178.188 1.30859 177.661 1.46484C177.144 1.62109 176.714 1.83594 176.372 2.10938C176.03 2.37305 175.776 2.69043 175.61 3.06152C175.444 3.42285 175.361 3.81348 175.361 4.2334C175.361 4.86816 175.508 5.39551 175.801 5.81543C176.104 6.23535 176.494 6.59668 176.973 6.89941C177.461 7.19238 178.013 7.44629 178.628 7.66113C179.253 7.87598 179.888 8.10059 180.532 8.33496C181.187 8.55957 181.821 8.81836 182.437 9.11133C183.062 9.39453 183.613 9.76074 184.092 10.21C184.58 10.6494 184.971 11.1914 185.264 11.8359C185.566 12.4707 185.718 13.2568 185.718 14.1943C185.718 15.1025 185.576 15.9229 185.293 16.6553C185.02 17.3877 184.6 18.0176 184.033 18.5449C183.477 19.0625 182.773 19.4629 181.924 19.7461C181.084 20.0195 180.093 20.1562 178.95 20.1562C178.345 20.1562 177.749 20.127 177.163 20.0684C176.577 20.0098 176.025 19.9316 175.508 19.834C174.99 19.7363 174.512 19.624 174.072 19.4971C173.633 19.3701 173.252 19.2432 172.93 19.1162V14.5752Z" fill="#4A2C2A"/>
</svg>
