<svg width="18" height="18" viewBox="0 0 18 18" fill="none" xmlns="http://www.w3.org/2000/svg">
<path d="M9.00335 18C7.75881 18 6.58873 17.7638 5.49311 17.2915C4.39749 16.8192 3.44445 16.1782 2.63399 15.3685C1.82353 14.5588 1.18192 13.6066 0.709152 12.512C0.236384 11.4175 0 10.2479 0 9.00335C0 7.75881 0.236162 6.58873 0.708487 5.49311C1.18081 4.39749 1.82182 3.44445 2.63152 2.63399C3.44122 1.82353 4.39337 1.18192 5.48796 0.709152C6.58256 0.236384 7.75212 0 8.99666 0C10.2412 0 11.4113 0.236162 12.5069 0.708487C13.6025 1.18081 14.5556 1.82182 15.366 2.63152C16.1765 3.44122 16.8181 4.39337 17.2909 5.48796C17.7636 6.58256 18 7.75212 18 8.99666C18 10.2412 17.7638 11.4113 17.2915 12.5069C16.8192 13.6025 16.1782 14.5556 15.3685 15.366C14.5588 16.1765 13.6066 16.8181 12.512 17.2909C11.4175 17.7636 10.2479 18 9.00335 18V18M8.00001 16.95V15C7.45001 15 6.97917 14.8042 6.58751 14.4125C6.19584 14.0208 6.00001 13.55 6.00001 13V12L1.20001 7.20001C1.15001 7.50001 1.10417 7.80001 1.06251 8.10001C1.02084 8.40001 1.00001 8.70001 1.00001 9.00001C1.00001 11.0167 1.66251 12.7833 2.98751 14.3C4.31251 15.8167 5.98334 16.7 8.00001 16.95V16.95M14.9 14.4C15.5833 13.65 16.1042 12.8125 16.4625 11.8875C16.8208 10.9625 17 9.9976 17 8.99279C17 7.35161 16.549 5.85277 15.6471 4.49628C14.7452 3.13979 13.5295 2.16154 12 1.56154V2.00001C12 2.55001 11.8042 3.02084 11.4125 3.41251C11.0208 3.80417 10.55 4.00001 10 4.00001H8.00001V6.00001C8.00001 6.28334 7.90417 6.52084 7.71251 6.71251C7.52084 6.90417 7.28334 7.00001 7.00001 7.00001H5.00001V9.00001H11C11.2833 9.00001 11.5208 9.09584 11.7125 9.28751C11.9042 9.47917 12 9.71667 12 10V13H13C13.4333 13 13.825 13.1292 14.175 13.3875C14.525 13.6458 14.7667 13.9833 14.9 14.4V14.4" fill="#4A2C2A"/>
</svg>
