<svg width="15" height="20" viewBox="0 0 15 20" fill="none" xmlns="http://www.w3.org/2000/svg">
<path d="M7.32693 9.00001V0.500003C7.32693 0.358335 7.37491 0.239584 7.47087 0.14375C7.56684 0.0479167 7.68575 0 7.8276 0C7.96946 0 8.08815 0.0479167 8.18366 0.14375C8.27918 0.239584 8.32693 0.358335 8.32693 0.500003V9.00001H7.32693V9.00001M3.65385 9.00001V1.5C3.65385 1.35834 3.70183 1.23958 3.79779 1.14375C3.89376 1.04792 4.01267 1 4.15453 1C4.29638 1 4.41507 1.04792 4.51058 1.14375C4.6061 1.23958 4.65385 1.35834 4.65385 1.5V9.00001H3.65385V9.00001M7.50384 19.5C5.41667 19.5 3.64423 18.7721 2.18654 17.3162C0.728847 15.8603 0 14.0882 0 12V3.00001C0 2.85834 0.0479816 2.73959 0.143945 2.64375C0.239908 2.54792 0.358819 2.5 0.500678 2.5C0.642537 2.5 0.761223 2.54792 0.856736 2.64375C0.952249 2.73959 1.00001 2.85834 1.00001 3.00001V12C1.00001 13.8167 1.62917 15.3542 2.88751 16.6125C4.14584 17.8708 5.68334 18.5 7.50001 18.5C9.31667 18.5 10.8542 17.8708 12.1125 16.6125C13.3708 15.3542 14 13.8167 14 12V8.00001H13.5C13.0885 8.00001 12.7356 8.14713 12.4414 8.44136C12.1471 8.73559 12 9.08847 12 9.50001V12.4231H10.0769C9.37308 12.4231 8.78046 12.6638 8.29905 13.1452C7.81764 13.6266 7.57693 14.2192 7.57693 14.9231V15.4231H6.57693V14.9231C6.57693 13.9513 6.91731 13.125 7.59808 12.4442C8.27885 11.7635 9.10513 11.4231 10.0769 11.4231H11V8.88001V8.88001V2.5C11 2.35834 11.048 2.23958 11.144 2.14375C11.2399 2.04792 11.3588 2 11.5007 2C11.6425 2 11.7612 2.04792 11.8567 2.14375C11.9523 2.23958 12 2.35834 12 2.5V7.55962C12.2051 7.38141 12.4336 7.24359 12.6853 7.14616C12.937 7.04872 13.2086 7.00001 13.5 7.00001H15V12C15 14.0882 14.2724 15.8603 12.8173 17.3162C11.3622 18.7721 9.59101 19.5 7.50384 19.5V19.5M8.00001 12.75V12.75V12.75V12.75V12.75V12.75V12.75V12.75V12.75V12.75V12.75V12.75V12.75V12.75V12.75V12.75V12.75" fill="#4A2C2A"/>
</svg>
